<svg xmlns="http://www.w3.org/2000/svg" viewBox="0 0 32 32" shape-rendering="crispEdges">
  <rect width="32" height="32" fill="none"/>
  <rect x="10" y="27" width="12" height="2" fill="#615144"/>
  <rect x="11" y="24" width="4" height="4" fill="#2b2b2b"/>
  <rect x="17" y="24" width="4" height="4" fill="#2b2b2b"/>
  <rect x="9" y="19" width="14" height="5" fill="#3aa0d6"/>
  <rect x="7" y="18" width="2" height="7" fill="#f1c7a4"/>
  <rect x="23" y="18" width="2" height="7" fill="#f1c7a4"/>
  <rect x="9" y="8" width="14" height="8" fill="#f4d9b8"/>
  <rect x="8" y="7" width="16" height="3" fill="#3f2d2b"/>
  <rect x="9" y="6" width="14" height="2" fill="#4d3831"/>
  <rect x="11" y="11" width="2" height="2" fill="#1f1d1d"/>
  <rect x="19" y="11" width="2" height="2" fill="#1f1d1d"/>
  <rect x="13" y="13" width="6" height="1" fill="#be6859"/>
  <rect x="12" y="14" width="8" height="2" fill="#d98772"/>
  <rect x="12" y="19" width="3" height="2" fill="#f7f4ef"/>
  <rect x="17" y="19" width="3" height="2" fill="#f7f4ef"/>
  <rect x="14" y="20" width="4" height="1" fill="#ffffff"/>
</svg>
