<svg xmlns="http://www.w3.org/2000/svg" viewBox="0 0 32 32" shape-rendering="crispEdges">
  <rect width="32" height="32" fill="none"/>
  <rect x="10" y="27" width="12" height="2" fill="#6a4a3d"/>
  <rect x="11" y="24" width="4" height="4" fill="#2b2b2b"/>
  <rect x="17" y="24" width="4" height="4" fill="#2b2b2b"/>
  <rect x="10" y="23" width="12" height="2" fill="#d95d5d"/>
  <rect x="9" y="18" width="14" height="5" fill="#7b6eea"/>
  <rect x="7" y="18" width="2" height="6" fill="#f3c7a0"/>
  <rect x="23" y="18" width="2" height="6" fill="#f3c7a0"/>
  <rect x="10" y="16" width="12" height="2" fill="#f3c7a0"/>
  <rect x="9" y="8" width="14" height="8" fill="#f9d9b9"/>
  <rect x="8" y="7" width="16" height="3" fill="#56392b"/>
  <rect x="9" y="6" width="14" height="2" fill="#6d4837"/>
  <rect x="11" y="11" width="2" height="2" fill="#1d1b1a"/>
  <rect x="19" y="11" width="2" height="2" fill="#1d1b1a"/>
  <rect x="14" y="13" width="4" height="1" fill="#d77666"/>
  <rect x="9" y="14" width="14" height="2" fill="#b16a54"/>
  <rect x="12" y="19" width="2" height="2" fill="#f7eee8"/>
  <rect x="18" y="19" width="2" height="2" fill="#f7eee8"/>
  <rect x="14" y="20" width="4" height="1" fill="#ffffff"/>
</svg>
